<?xml version="1.0" encoding="iso-8859-1"?>
<!-- Uploaded to: SVG Repo, www.svgrepo.com, Generator: SVG Repo Mixer Tools -->
<svg fill="#000000" height="800px" width="800px" version="1.1" id="Layer_1" xmlns="http://www.w3.org/2000/svg" xmlns:xlink="http://www.w3.org/1999/xlink" 
	 viewBox="0 0 512 512" xml:space="preserve">
<g>
	<g>
		<g>
			<path d="M179.2,264.533c23.526,0,42.667-19.14,42.667-42.667c0-23.526-19.14-42.667-42.667-42.667
				c-23.526,0-42.667,19.14-42.667,42.667C136.533,245.393,155.674,264.533,179.2,264.533z"/>
			<path d="M486.4,0H196.267h-51.2C121.54,0,102.4,19.14,102.4,42.667v64.316L85.82,95.744c-3.371-2.287-7.927-1.86-10.82,1.033
				l-25.062,25.062c-2.978,2.978-3.345,7.689-0.853,11.085l11.605,15.821c6.016,8.209,7.39,18.756,3.669,28.228
				c-3.721,9.472-11.904,16.273-21.879,18.193l-18.483,3.55c-4.028,0.768-6.929,4.292-6.929,8.38v35.448
				c0,4.215,3.072,7.791,7.236,8.431l19.388,2.987c10.061,1.544,18.492,8.038,22.562,17.365c4.062,9.327,3.089,19.917-2.62,28.339
				l-10.556,15.582c-2.295,3.388-1.86,7.927,1.033,10.82l25.062,25.062c2.987,2.987,7.68,3.328,11.085,0.853l12.143-8.9v126.251
				c0,23.526,19.14,42.667,42.667,42.667H486.4c4.719,0,8.533-3.823,8.533-8.533V435.2V8.533C494.933,3.823,491.119,0,486.4,0z
				 M119.467,42.667c0-14.114,11.486-25.6,25.6-25.6h42.667v42.667h-23.296c-4.096,0-7.612,2.901-8.388,6.921l-4.591,23.868
				c-0.435,2.295-1.178,4.454-2.082,6.511c-0.341,0.759-0.802,1.451-1.203,2.176c-0.666,1.212-1.365,2.406-2.193,3.507
				c-0.597,0.785-1.28,1.519-1.963,2.244c-0.819,0.879-1.69,1.724-2.62,2.5c-0.819,0.674-1.673,1.314-2.569,1.903
				c-1.28,0.845-2.611,1.621-4.036,2.278c-0.461,0.213-0.905,0.486-1.374,0.666c-1.843,0.734-3.721,1.203-5.606,1.562
				c-0.845,0.154-1.69,0.273-2.543,0.35c-1.382,0.145-2.765,0.162-4.147,0.102c-0.546-0.017-1.109,0.026-1.655-0.026V42.667z
				 M179.2,162.133c32.93,0,59.733,26.795,59.733,59.733c0,32.939-26.803,59.733-59.733,59.733
				c-32.93,0-59.733-26.795-59.733-59.733C119.467,188.928,146.27,162.133,179.2,162.133z M137.156,427.469
				c-0.819,0.154-1.596,0.401-2.398,0.597c-1.732,0.435-3.43,0.947-5.077,1.587c-0.862,0.333-1.69,0.7-2.526,1.092
				c-1.545,0.717-3.021,1.528-4.454,2.415c-0.742,0.461-1.485,0.896-2.193,1.399c-0.333,0.239-0.717,0.418-1.041,0.657V334.95
				c0.444-0.06,0.887-0.026,1.323-0.068c1.673-0.154,3.362-0.154,5.043-0.017c0.734,0.06,1.459,0.128,2.185,0.239
				c2.005,0.316,4.002,0.777,5.956,1.51c0.435,0.171,0.845,0.418,1.271,0.597c1.553,0.683,3.012,1.502,4.403,2.406
				c0.785,0.512,1.536,1.058,2.253,1.63c1.195,0.956,2.295,1.988,3.319,3.098c0.486,0.538,0.99,1.058,1.442,1.621
				c1.075,1.374,1.997,2.876,2.816,4.429c0.265,0.495,0.589,0.947,0.819,1.459c0.973,2.125,1.741,4.378,2.193,6.741l3.558,18.483
				c0.776,4.019,4.292,6.921,8.388,6.921h23.296v42.667h-42.667C142.353,426.667,139.725,426.982,137.156,427.469z M452.267,477.867
				H153.6c-4.719,0-8.533-3.823-8.533-8.533s3.814-8.533,8.533-8.533h298.667c4.719,0,8.533,3.823,8.533,8.533
				S456.986,477.867,452.267,477.867z M477.867,426.667H204.8v-44.348c1.809-1.297,3.149-3.217,3.507-5.555l2.099-13.645
				c1.587-10.274,8.269-18.79,17.877-22.767c9.583-3.977,20.343-2.688,28.732,3.473l11.136,8.158
				c3.371,2.483,8.09,2.133,11.076-0.853l25.062-25.062c2.893-2.893,3.328-7.432,1.033-10.82l-10.556-15.582
				c-5.709-8.422-6.682-19.012-2.62-28.339c1.015-2.33,2.313-4.489,3.831-6.434c4.557-5.828,11.187-9.771,18.731-10.931
				l19.388-2.987c4.164-0.64,7.236-4.215,7.236-8.431v-35.448c0-4.087-2.901-7.612-6.929-8.38l-18.483-3.55
				c-9.975-1.92-18.159-8.721-21.88-18.193c-3.721-9.472-2.338-20.019,3.678-28.228l11.597-15.821
				c1.246-1.698,1.775-3.729,1.621-5.7c-0.145-1.971-0.981-3.891-2.475-5.385l-25.062-25.062c-2.893-2.893-7.432-3.319-10.82-1.033
				l-15.582,10.564c-8.414,5.692-19.004,6.673-28.339,2.611c-9.327-4.07-15.821-12.501-17.365-22.554l-2.987-19.396
				c-0.358-2.338-1.698-4.25-3.507-5.555V17.067h273.067V426.667z"/>
		</g>
	</g>
</g>
</svg>