<?xml version="1.0" encoding="UTF-8"?>
<svg width="191px" height="83px" viewBox="0 0 191 83" version="1.1" xmlns="http://www.w3.org/2000/svg" xmlns:xlink="http://www.w3.org/1999/xlink">
    <!-- Generator: Sketch 55.2 (78181) - https://sketchapp.com -->
    <title>logo negative</title>
    <desc>Created with Sketch.</desc>
    <g id="logo-negative" stroke="none" stroke-width="1" fill="none" fill-rule="evenodd">
        <g id="Group-10-Copy">
            <path d="M133.786541,66.313363 L174.44038,66.313363 L174.44038,49.6870238 L171.569354,49.6870238 C156.818125,49.6870238 142.06635,49.6350597 127.316215,49.7422699 C125.041247,49.7586796 123.78193,49.1367508 122.622592,47.0926454 C114.225865,32.2817694 105.678348,17.556771 97.176723,2.80551697 C96.7238056,2.01894388 96.2566834,1.24112264 95.6393172,0.193087832 C95.1328583,0.867527767 94.6793946,1.36255465 94.3494042,1.92978434 C92.0143393,5.9430575 89.5978696,9.91475933 87.4354487,14.019927 C86.4503945,15.8900893 85.2937889,16.5267869 83.1794461,16.518035 C62.1458332,16.4343454 41.111674,16.4677118 20.0775147,16.4677118 L16.5984102,16.4677118 L16.5984102,33.1104608 L76.3889639,33.1104608 C73.1622692,38.6974271 70.2311455,43.9020467 67.1109875,48.9917982 C66.7629678,49.5601219 65.3457571,49.6569393 64.4235322,49.6596743 C49.4903718,49.6985106 34.5572114,49.6870238 19.6240511,49.6870238 L16.5323028,49.6870238 L16.5323028,66.3002352 L57.2741034,66.3002352 C53.9894965,71.984019 51.0223142,77.1705879 47.9699026,82.3057397 C47.7333366,82.7039491 46.902897,82.9298564 46.3478138,82.9309504 C30.9671995,82.9637699 15.5865852,82.957753 0,82.957753 L0,0 L191,0 L191,16.3894921 L124.564837,16.3894921 C125.075121,17.5354383 125.325891,18.2569195 125.69795,18.9094798 C127.997503,22.9435386 130.407963,26.9168814 132.603164,31.0067333 C133.504082,32.6854487 134.604414,33.1864925 136.46143,33.1788347 C153.488718,33.1071788 170.516553,33.1367163 187.543842,33.1367163 L190.980878,33.1367163 L190.980878,82.9599409 L188.267745,82.9599409 C174.154097,82.9599409 160.039903,82.9265745 145.926802,83 C144.07361,83.0091701 142.983112,82.5168782 142.068536,80.8184711 C139.535695,76.1143482 136.784864,71.5278285 133.786541,66.313363" id="Fill-4" fill="#FFFFFF"></path>
            <path d="M76.2231475,67.5765923 C81.5175551,58.3533154 92.7922252,38.6646983 95.4827284,34 C97.8904066,38.1581986 108.562388,56.815194 114.837483,67.7580698 C115.021941,67.8993346 115.174344,68.0554094 115.27575,68.2200699 C118.190203,72.95225 120.946321,77.7796005 124,83 L67,83 C70.1164666,77.7166912 73.0281899,72.6941604 76.0714949,67.7512072 C76.1100039,67.6886363 76.161347,67.630471 76.2231475,67.5765923 Z" id="Combined-Shape" fill="#D8232A"></path>
        </g>
    </g>
</svg>